# This file uses centimeters as units for non-parametric coordinates.

mtllib Potion.mtl
g default
v -0.369306 -0.002276 0.370635
v 0.370062 -0.002276 0.370635
v -0.082046 1.102137 0.081078
v 0.082801 1.102137 0.081078
v -0.082046 1.102137 -0.083770
v 0.082801 1.102137 -0.083770
v -0.369306 -0.002276 -0.368733
v 0.370062 -0.002276 -0.368733
v -0.264270 0.831678 0.263190
v 0.265026 0.831678 0.263190
v 0.265026 0.831678 -0.266105
v -0.264270 0.831678 -0.266105
v -0.093394 1.655367 0.091446
v 0.094150 1.655367 0.091446
v 0.094150 1.655367 -0.096097
v -0.093394 1.655367 -0.096097
v -0.145042 1.836021 0.143962
v 0.145798 1.836021 0.143962
v 0.145798 1.836021 -0.146878
v -0.145042 1.836021 -0.146878
v -0.063883 1.471269 0.062914
v 0.064638 1.471269 0.062914
v 0.064638 1.471269 -0.065607
v -0.063883 1.471269 -0.065607
v -0.285778 1.711502 0.286738
v 0.286533 1.711502 0.286738
v 0.284348 1.847084 0.282513
v -0.283593 1.847084 0.282513
v 0.286533 1.711502 -0.285573
v 0.284348 1.847084 -0.285429
v -0.285778 1.711502 -0.285573
v -0.283593 1.847084 -0.285429
v -0.517598 0.187905 0.518926
v 0.518354 0.187905 0.518926
v 0.548958 0.190472 -0.550037
v -0.548202 0.190472 -0.550037
v 0.529583 0.551021 -0.530663
v 0.529583 0.551021 0.527748
v -0.528828 0.551021 0.527748
v -0.528828 0.551021 -0.530663
v 0.000378 -0.002276 0.548582
v 0.000378 -0.002276 -0.546680
v 0.000378 0.190471 -0.808898
v 0.000378 0.551021 -0.813313
v 0.000378 0.831678 -0.343630
v 0.000378 1.102137 -0.122081
v 0.000378 1.471269 -0.104210
v 0.000378 1.655367 -0.164573
v 0.000378 1.722335 -0.394194
v 0.000378 1.847084 -0.383012
v 0.000378 1.835059 -0.196790
v 0.000378 1.824512 0.193874
v 0.000378 1.847084 0.380097
v 0.000378 1.711502 0.385073
v 0.000378 1.655367 0.159922
v 0.000378 1.471269 0.101518
v 0.000378 1.102137 0.119389
v 0.000378 0.831678 0.340714
v 0.000378 0.551021 0.810398
v 0.000378 0.187905 0.763346
v -0.120357 1.102137 -0.001346
v -0.102486 1.471269 -0.001346
v -0.161869 1.655367 -0.002326
v -0.384113 1.711502 0.000582
v -0.381177 1.847084 -0.001458
v -0.194954 1.835059 -0.001458
v 0.195710 1.835059 -0.001458
v 0.381932 1.847084 -0.001458
v 0.384869 1.711502 0.000582
v 0.162625 1.655367 -0.002326
v 0.103241 1.471269 -0.001346
v 0.121112 1.102137 -0.001346
v 0.342550 0.831678 -0.001458
v 0.812233 0.551021 -0.001458
v 0.762773 0.187905 0.000951
v 0.548009 -0.002276 0.000951
v -0.547253 -0.002276 0.000951
v -0.762017 0.187905 0.000951
v -0.811478 0.551021 -0.001458
v -0.341795 0.831678 -0.001458
v 0.128245 1.742610 -0.000920
v 0.082998 1.742610 -0.083617
v 0.000378 1.742610 -0.128786
v -0.082242 1.742610 -0.083617
v -0.127489 1.742610 -0.000920
v -0.077284 1.740243 0.076169
v 0.000378 1.740243 0.118736
v 0.078040 1.740243 0.076169
v 0.270062 2.146787 -0.001458
v 0.189327 2.146787 -0.190407
v 0.000378 2.146787 -0.271142
v -0.188571 2.146787 -0.190407
v -0.269307 2.146787 -0.001458
v -0.188571 2.146787 0.187491
v 0.000378 2.146787 0.268227
v 0.189327 2.146787 0.187491
v -0.556566 0.406093 0.557033
v 0.000378 0.405743 0.840813
v 0.557322 0.405743 0.557033
v 0.841102 0.406093 0.000089
v 0.570315 0.406483 -0.570871
v 0.000378 0.406483 -0.860783
v -0.569560 0.406483 -0.570871
v -0.840346 0.406093 0.000089
v -0.059404 1.301160 0.058436
v 0.000378 1.301160 0.089334
v 0.060160 1.301160 0.058436
v 0.091058 1.301160 -0.001346
v 0.060160 1.301160 -0.061129
v 0.000378 1.301160 -0.092027
v -0.059404 1.301160 -0.061129
v -0.090303 1.301160 -0.001346
v 0.301595 2.104210 -0.001258
v 0.195006 2.104210 -0.195938
v 0.000378 2.104210 -0.302475
v -0.194251 2.104210 -0.195938
v -0.300840 2.104210 -0.001258
v -0.193148 2.103683 0.192107
v 0.000378 2.103683 0.298133
v 0.193903 2.103683 0.192107
v 0.000378 2.161925 -0.001458
v 0.280527 1.792851 0.279361
v 0.367545 1.792851 -0.000789
v 0.280527 1.792851 -0.280940
v 0.000378 1.787597 -0.382645
v -0.279772 1.792851 -0.280940
v -0.376043 1.792851 -0.000789
v -0.279772 1.792851 0.279361
v 0.000378 1.792851 0.375632
v -0.172023 0.939862 -0.173813
v 0.000378 0.939862 -0.229410
v 0.172778 0.939862 -0.173813
v 0.228374 0.939862 -0.001413
v 0.172778 0.939862 0.170988
v 0.000378 0.939862 0.226583
v -0.172023 0.939862 0.170988
v -0.227619 0.939862 -0.001413
vt 0.352952 0.336398
vt 0.352477 0.267016
vt 0.668646 0.267084
vt 0.649516 0.336016
vt 0.037241 0.267110
vt 0.056460 0.336632
vt 0.352972 0.145525
vt 0.658879 0.145465
vt 0.352566 0.505394
vt 0.501156 0.505366
vt 0.047719 0.145569
vt 0.204748 0.505337
vt 0.352545 0.024301
vt 0.560065 0.024191
vt 0.449468 0.565799
vt 0.352686 0.565728
vt 0.147997 0.024224
vt 0.256308 0.565868
vt 0.352935 0.656746
vt 0.399446 0.656848
vt 0.306922 0.656808
vt 0.386553 0.768263
vt 0.352745 0.768237
vt 0.319435 0.768253
vt 0.352683 0.863568
vt 0.388159 0.863567
vt 0.388097 0.863566
vt 0.352849 0.966769
vt 0.300460 0.966702
vt 0.300222 0.966785
vt 0.353154 0.863564
vt 0.352983 0.966724
vt 0.352915 0.966765
vt 0.353023 0.863567
vt 0.037241 0.267110
vt 0.353416 0.267016
vt 0.352942 0.336398
vt 0.056393 0.336632
vt 0.047721 0.145569
vt 0.352923 0.145525
vt 0.668646 0.267084
vt 0.649419 0.336016
vt 0.353328 0.505394
vt 0.204575 0.505337
vt 0.147884 0.024224
vt 0.353349 0.024301
vt 0.658904 0.145466
vt 0.501308 0.505366
vt 0.353208 0.565728
vt 0.256389 0.565868
vt 0.559407 0.024191
vt 0.449622 0.565799
vt 0.352959 0.656746
vt 0.306606 0.656808
vt 0.398814 0.656848
vt 0.353149 0.768237
vt 0.319466 0.768253
vt 0.386335 0.768263
vt 0.353211 0.863568
vt 0.388167 0.863565
vt 0.388438 0.863567
vt 0.353045 0.966769
vt 0.300589 0.966785
vt 0.300313 0.966779
vt 0.916907 0.619017
vt 0.940237 0.618967
vt 0.940501 0.740582
vt 0.917171 0.740318
vt 0.939973 0.497339
vt 0.916643 0.497373
vt 0.974975 0.618892
vt 0.975240 0.740899
vt 0.974711 0.497290
vt 0.938966 0.011949
vt 0.939207 0.133711
vt 0.915876 0.133758
vt 0.915636 0.012004
vt 0.973675 0.011844
vt 0.973930 0.133641
vt 0.939445 0.254489
vt 0.916115 0.254549
vt 0.974183 0.254400
vt 0.874748 0.886123
vt 0.874640 0.796380
vt 0.894269 0.798906
vt 0.894375 0.886007
vt 0.708059 0.886480
vt 0.708013 0.848358
vt 0.874613 0.975259
vt 0.894480 0.973108
vt 0.707011 0.922017
vt 0.874625 0.784887
vt 0.874517 0.695145
vt 0.894144 0.695213
vt 0.894249 0.782314
vt 0.707874 0.733311
vt 0.707828 0.695190
vt 0.874167 0.606008
vt 0.894039 0.608112
vt 0.706694 0.659655
vt 0.700316 0.630683
vt 0.663798 0.716148
vt 0.578333 0.752666
vt 0.578333 0.630683
vt 0.456351 0.630683
vt 0.492869 0.716148
vt 0.578333 0.508701
vt 0.663798 0.545218
vt 0.492869 0.545218
vt 0.689932 0.871213
vt 0.579234 0.760515
vt 0.653962 0.796485
vt 0.353122 0.024296
vt 0.653962 0.945941
vt 0.504506 0.796485
vt 0.468535 0.871213
vt 0.352960 0.145506
vt 0.047723 0.145569
vt 0.147830 0.024227
vt 0.352958 0.145524
vt 0.658891 0.145465
vt 0.658846 0.145457
vt 0.047720 0.145569
vt 0.785859 0.226234
vt 0.785859 0.164072
vt 0.811748 0.145167
vt 0.864864 0.199085
vt 0.759969 0.145167
vt 0.706854 0.199085
vt 0.830654 0.119277
vt 0.892013 0.120080
vt 0.679705 0.120080
vt 0.741064 0.119277
vt 0.811748 0.093387
vt 0.864864 0.041075
vt 0.759969 0.093387
vt 0.706854 0.041075
vt 0.785859 0.074482
vt 0.785859 0.011086
vt 0.107196 0.721671
vt 0.088656 0.775686
vt 0.019485 0.775686
vt 0.055732 0.670208
vt 0.132377 0.746839
vt 0.116566 0.775686
vt 0.107196 0.829702
vt 0.055732 0.881165
vt 0.161211 0.633961
vt 0.161211 0.703132
vt 0.161012 0.728191
vt 0.132377 0.804534
vt 0.161211 0.848241
vt 0.161211 0.917412
vt 0.215226 0.721671
vt 0.266690 0.670208
vt 0.191729 0.744998
vt 0.161012 0.823182
vt 0.215226 0.829702
vt 0.266690 0.881165
vt 0.302937 0.775686
vt 0.233766 0.775686
vt 0.208506 0.775686
vt 0.191729 0.806375
vt 0.352947 0.336395
vt 0.352947 0.267026
vt 0.668686 0.267083
vt 0.649467 0.335990
vt 0.037289 0.267111
vt 0.056427 0.336614
vt 0.352947 0.505388
vt 0.501232 0.505365
vt 0.204662 0.505338
vt 0.449545 0.565806
vt 0.352947 0.565748
vt 0.256349 0.565871
vt 0.352947 0.656747
vt 0.399130 0.656834
vt 0.306764 0.656801
vt 0.386444 0.768261
vt 0.352947 0.768239
vt 0.319450 0.768253
vt 0.317988 0.863566
vt 0.037200 0.267128
vt 0.352947 0.267186
vt 0.352947 0.336399
vt 0.056425 0.336629
vt 0.649464 0.336036
vt 0.668612 0.267070
vt 0.353024 0.505310
vt 0.204644 0.505356
vt 0.501248 0.505349
vt 0.353013 0.566019
vt 0.256359 0.565925
vt 0.449564 0.565905
vt 0.352951 0.656754
vt 0.306713 0.656703
vt 0.399028 0.656642
vt 0.353031 0.768269
vt 0.319457 0.768255
vt 0.386399 0.768241
vt 0.318010 0.863566
vt 0.916379 0.375932
vt 0.939709 0.375910
vt 0.974447 0.375877
vt 0.940769 0.862120
vt 0.917442 0.862173
vt 0.975509 0.862043
vt 0.941045 0.984332
vt 0.917715 0.984387
vt 0.975775 0.984276
vt 0.875364 0.403942
vt 0.876150 0.314226
vt 0.895776 0.314398
vt 0.895013 0.401496
vt 0.709133 0.350851
vt 0.709466 0.312766
vt 0.876935 0.224510
vt 0.896538 0.227300
vt 0.709800 0.274682
vt 0.874754 0.594515
vt 0.874647 0.505305
vt 0.894516 0.505280
vt 0.894622 0.592382
vt 0.707153 0.541307
vt 0.707109 0.505507
vt 0.874539 0.416094
vt 0.894411 0.418180
vt 0.707066 0.469706
vt 0.504506 0.945941
vt 0.579234 0.981912
vt 0.560114 0.024206
vt 0.353072 0.024296
vt 0.147936 0.024226
vt 0.559555 0.024210
vt 0.405476 0.966753
vt 0.317981 0.863566
vt 0.405494 0.966747
vt 0.405502 0.966753
vt 0.317888 0.863566
vt 0.405489 0.966752
vn 0.231891 0.668412 0.706719
vn 0.000000 0.681714 0.731619
vn -0.000000 0.825309 0.564681
vn 0.238335 0.803322 0.545775
vn 0.040025 0.999199 0.000000
vn 0.039993 0.998399 -0.039994
vn -0.000000 0.999199 -0.040026
vn -0.000000 1.000000 0.000000
vn -0.000000 0.825330 -0.564651
vn -0.000000 0.682043 -0.731312
vn 0.231809 0.668721 -0.706453
vn 0.238324 0.803339 -0.545755
vn -0.000000 -1.000000 0.000000
vn -0.000000 -1.000000 0.000000
vn -0.000000 -1.000000 0.000000
vn -0.000000 -1.000000 0.000000
vn -0.000000 -1.000000 0.000000
vn -0.000000 -1.000000 0.000000
vn -0.000000 -1.000000 0.000000
vn -0.000000 -1.000000 0.000000
vn 0.706532 0.668632 -0.231828
vn 0.731465 0.681879 -0.000005
vn 0.564666 0.825320 -0.000005
vn 0.545759 0.803335 -0.238328
vn -0.545759 0.803335 -0.238329
vn -0.564666 0.825319 -0.000005
vn -0.731465 0.681879 -0.000006
vn -0.706531 0.668632 -0.231829
vn 0.000132 0.661329 0.750096
vn -0.000013 -0.076199 0.997093
vn 0.448530 -0.072873 0.890792
vn 0.334443 0.642746 0.689220
vn 0.745813 0.666153 0.001440
vn 0.998576 -0.051415 0.014270
vn 0.908132 -0.033670 -0.417328
vn 0.685809 0.650125 -0.327114
vn 0.448723 0.023813 -0.893354
vn 0.000000 0.029872 -0.999554
vn 0.000000 0.681904 -0.731442
vn 0.327527 0.661496 -0.674647
vn -0.908132 -0.033671 -0.417329
vn -0.998573 -0.051467 0.014280
vn -0.745716 0.666262 0.001311
vn -0.685809 0.650125 -0.327114
vn 0.000000 -0.278897 0.960321
vn 0.000000 -0.194904 0.980822
vn 0.525637 -0.162298 0.835084
vn 0.545393 -0.233766 0.804922
vn 0.958939 -0.283608 -0.001945
vn 0.980197 -0.198023 0.001027
vn 0.834466 -0.166618 -0.525267
vn 0.803555 -0.240540 -0.544463
vn 0.525141 -0.167237 -0.834421
vn 0.000000 -0.201149 -0.979561
vn 0.000000 -0.288278 -0.957547
vn 0.544285 -0.241836 -0.803287
vn -0.834466 -0.166617 -0.525267
vn -0.980197 -0.198022 0.001027
vn -0.958939 -0.283606 -0.001945
vn -0.803555 -0.240539 -0.544463
vn 0.000000 -0.082056 0.996628
vn 0.000000 0.037182 0.999309
vn 0.324793 0.034655 0.945150
vn 0.324008 -0.077631 0.942864
vn 0.984279 -0.176603 -0.002450
vn 0.999777 0.021109 -0.000983
vn 0.950291 0.014870 -0.311008
vn 0.936286 -0.171741 -0.306388
vn 0.342012 0.043597 -0.938684
vn 0.000000 0.049566 -0.998771
vn -0.000000 -0.054508 -0.998513
vn 0.333086 -0.051396 -0.941495
vn -0.945611 0.015072 -0.324951
vn -0.999761 0.021851 -0.001052
vn -0.995544 -0.094267 -0.002579
vn -0.941610 -0.093118 -0.323575
vn 0.000000 0.068639 0.997642
vn 0.458899 0.061032 0.886390
vn 0.997642 0.068639 0.000000
vn 0.886393 0.061032 -0.458893
vn 0.458899 0.061032 -0.886390
vn 0.000000 0.068639 -0.997642
vn -0.886393 0.061032 -0.458893
vn -0.997642 0.068639 0.000000
vn 0.000000 -0.976160 0.217054
vn -0.000000 -0.976160 0.217054
vn 0.094869 -0.971757 0.216075
vn 0.094869 -0.971757 0.216075
vn -0.054149 0.995325 -0.079977
vn 0.000000 0.996787 -0.080095
vn -0.000000 0.996787 -0.080095
vn -0.054149 0.995325 -0.079977
vn 0.219452 -0.975623 0.000974
vn 0.219469 -0.975619 -0.000552
vn 0.219510 -0.970838 -0.096377
vn 0.219510 -0.970838 -0.096377
vn -0.061038 0.997866 0.023202
vn -0.061055 0.998134 0.000000
vn -0.061055 0.998134 0.000000
vn -0.061038 0.997866 0.023202
vn 0.086252 -0.965901 -0.244124
vn -0.000000 -0.969514 -0.245038
vn -0.000000 -0.969514 -0.245037
vn 0.086252 -0.965901 -0.244124
vn -0.000000 0.998134 0.061054
vn 0.000000 0.998135 0.061054
vn -0.023202 0.997866 0.061036
vn -0.023202 0.997866 0.061036
vn -0.219510 -0.970838 -0.096378
vn -0.219469 -0.975619 -0.000552
vn -0.219452 -0.975623 0.000974
vn -0.219510 -0.970838 -0.096378
vn 0.061055 0.998134 0.000000
vn 0.061055 0.998134 0.000000
vn 0.061038 0.997866 0.023202
vn 0.061038 0.997866 0.023202
vn -0.000136 -0.511123 0.859508
vn 0.000000 -0.751761 0.659435
vn 0.299381 -0.717281 0.629189
vn 0.382712 -0.482364 0.787945
vn 0.857904 -0.513585 0.015225
vn 0.644422 -0.764617 0.008993
vn 0.608621 -0.749283 -0.261067
vn 0.804813 -0.481441 -0.347117
vn -0.000000 -0.807976 -0.589215
vn 0.000000 -0.516586 -0.856235
vn 0.379706 -0.493055 -0.782765
vn 0.269883 -0.777995 -0.567351
vn -0.608620 -0.749283 -0.261068
vn -0.644422 -0.764618 0.008993
vn -0.857958 -0.513490 0.015355
vn -0.804813 -0.481442 -0.347117
vn -0.379706 -0.493055 -0.782765
vn -0.269883 -0.777995 -0.567351
vn -0.327528 0.661496 -0.674647
vn -0.448723 0.023813 -0.893354
vn -0.238324 0.803339 -0.545755
vn -0.231809 0.668721 -0.706453
vn -0.458897 0.061032 -0.886391
vn -0.525140 -0.167236 -0.834422
vn -0.544285 -0.241836 -0.803287
vn -0.086252 -0.965901 -0.244124
vn -0.086252 -0.965901 -0.244124
vn -0.342012 0.043597 -0.938684
vn -0.333086 -0.051395 -0.941495
vn 0.023202 0.997866 0.061038
vn 0.023202 0.997866 0.061038
vn 0.054149 0.995325 -0.079977
vn 0.054149 0.995325 -0.079977
vn -0.324792 0.034656 0.945150
vn -0.324006 -0.077629 0.942865
vn -0.094869 -0.971757 0.216075
vn -0.094869 -0.971757 0.216075
vn -0.525636 -0.162297 0.835084
vn -0.545393 -0.233766 0.804922
vn -0.458897 0.061032 0.886391
vn -0.238335 0.803322 0.545775
vn -0.231891 0.668412 0.706719
vn -0.334338 0.642948 0.689083
vn -0.448545 -0.072809 0.890790
vn -0.299381 -0.717281 0.629189
vn -0.382798 -0.482182 0.788014
vn -0.886392 0.061032 0.458896
vn -0.835045 -0.162924 0.525506
vn -0.804663 -0.235070 0.545216
vn -0.217402 -0.971404 0.095452
vn -0.217402 -0.971404 0.095452
vn -0.945390 0.026338 0.324875
vn -0.942280 -0.085202 0.323805
vn 0.061038 0.997866 -0.023202
vn 0.061038 0.997866 -0.023202
vn -0.061038 0.997866 -0.023202
vn -0.061038 0.997866 -0.023202
vn 0.950054 0.026834 0.310931
vn 0.937476 -0.164393 0.306779
vn 0.217402 -0.971404 0.095452
vn 0.217402 -0.971404 0.095452
vn 0.835045 -0.162925 0.525505
vn 0.804663 -0.235071 0.545215
vn 0.886391 0.061032 0.458896
vn 0.545770 0.803327 0.238330
vn 0.706640 0.668503 0.231871
vn 0.690571 0.640895 0.335209
vn 0.890540 -0.077370 0.448278
vn 0.629190 -0.717281 0.299381
vn 0.787497 -0.483312 0.382437
vn -0.629189 -0.717281 0.299381
vn -0.787567 -0.483129 0.382524
vn -0.890538 -0.077308 0.448293
vn -0.690436 0.641095 0.335105
vn -0.545770 0.803326 0.238330
vn -0.706640 0.668502 0.231871
vn -0.727099 0.614616 0.305899
vn -0.727099 0.614616 0.305899
vn -0.727099 0.614616 0.305899
vn -0.727099 0.614616 0.305899
vn -0.305361 0.616018 0.726138
vn -0.305361 0.616019 0.726138
vn -0.305361 0.616018 0.726138
vn -0.305361 0.616018 0.726138
vn 0.305362 0.616019 0.726137
vn 0.305362 0.616019 0.726137
vn 0.305362 0.616019 0.726137
vn 0.305362 0.616019 0.726137
vn 0.727099 0.614615 0.305901
vn 0.727099 0.614615 0.305901
vn 0.727099 0.614615 0.305901
vn 0.727099 0.614615 0.305901
vn 0.713018 0.625459 -0.316869
vn 0.713018 0.625459 -0.316869
vn 0.713018 0.625459 -0.316869
vn 0.713018 0.625459 -0.316869
vn 0.316503 0.660000 -0.681342
vn 0.316503 0.660000 -0.681342
vn 0.316503 0.660000 -0.681342
vn 0.316503 0.660000 -0.681342
vn -0.316502 0.660000 -0.681342
vn -0.316502 0.660000 -0.681342
vn -0.316502 0.660000 -0.681342
vn -0.316502 0.660000 -0.681342
vn -0.713018 0.625460 -0.316868
vn -0.713018 0.625460 -0.316868
vn -0.713018 0.625460 -0.316868
vn -0.713018 0.625460 -0.316868
vn 0.941267 -0.337583 0.007309
vn 0.842935 -0.288413 -0.454179
vn 0.828441 0.387359 -0.404524
vn 0.909046 0.416690 0.002068
vn 0.453954 -0.289230 -0.842776
vn 0.000000 -0.334066 -0.942550
vn 0.000000 0.421991 -0.906600
vn 0.404751 0.385881 -0.829019
vn -0.453954 -0.289230 -0.842776
vn -0.404751 0.385880 -0.829020
vn -0.842934 -0.288414 -0.454180
vn -0.941267 -0.337583 0.007308
vn -0.909047 0.416688 0.002069
vn -0.828442 0.387355 -0.404524
vn -0.832226 -0.292531 0.470983
vn -0.831809 0.373628 0.410482
vn -0.452760 -0.299106 0.839967
vn -0.000000 -0.344613 0.938745
vn 0.000000 0.392203 0.919878
vn -0.409739 0.357769 0.839116
vn 0.452760 -0.299106 0.839967
vn 0.409740 0.357769 0.839116
vn 0.832226 -0.292531 0.470983
vn 0.831809 0.373629 0.410482
vn -0.344842 0.424761 0.837056
vn 0.000000 0.454074 0.890964
vn 0.344842 0.424761 0.837056
vn 0.837014 0.424852 0.344831
vn 0.890867 0.454264 0.000037
vn 0.836949 0.425011 -0.344795
vn 0.344786 0.425100 -0.836906
vn 0.000000 0.454454 -0.890770
vn -0.344786 0.425100 -0.836907
vn -0.889996 0.142461 -0.433142
vn -0.911697 0.379777 0.156775
vn -0.837014 0.424853 0.344830
vn 0.899456 -0.436705 0.016332
vn 0.808478 -0.387949 -0.442559
vn 0.442369 -0.388235 -0.808445
vn 0.000000 -0.432896 -0.901444
vn -0.442369 -0.388236 -0.808445
vn -0.808478 -0.387949 -0.442560
vn -0.899456 -0.436706 0.016331
vn -0.796577 -0.391231 0.460873
vn -0.440980 -0.397285 0.804799
vn -0.000000 -0.442649 0.896695
vn 0.440980 -0.397284 0.804799
vn 0.796577 -0.391231 0.460873
vn -0.040025 0.999199 0.000000
vn -0.039993 0.998399 -0.039993
vn -0.000000 0.999199 0.040026
vn -0.039993 0.998399 0.039993
vn 0.039993 0.998399 0.039994
vn 0.939456 0.151240 0.307487
vn 0.988115 0.153679 0.003361
vn 0.940882 0.141088 -0.307953
vn 0.346787 0.116926 -0.930627
vn 0.000000 0.124661 -0.992199
vn -0.346786 0.116925 -0.930628
vn -0.942050 0.087991 -0.323728
vn -0.995104 0.098772 0.003527
vn -0.941090 0.098807 0.323398
vn -0.323048 0.109105 0.940072
vn 0.000000 0.115287 0.993332
vn 0.323047 0.109105 0.940073
vn -0.780876 0.554457 -0.287766
vn -0.780876 0.554457 -0.287767
s 1
g Potion
usemtl Potion_SHA
f 134/173/1 135/174/2 58/170/3 10/171/4
s 2
f 89/101/5 90/102/6 91/103/7 121/104/8
s 3
f 45/189/9 131/192/10 132/193/11 11/190/12
s off
f 77/116/13 7/115/14 42/111/15 8/112/16 76/110/17 2/114/18 41/230/19 1/229/20
s 4
f 132/15/21 133/16/22 73/9/23 11/10/24
s 5
f 12/44/25 80/43/26 137/49/27 130/50/28
s 1
f 59/164/29 98/165/30 99/166/31 38/167/32
s 4
f 74/1/33 100/2/34 101/3/35 37/4/36
s 3
f 101/183/37 102/184/38 44/185/39 37/186/40
s 5
f 103/35/41 104/36/42 79/37/43 40/38/44
s 1
f 55/33/45 56/34/46 22/27/47 14/240/48
s 4
f 70/28/49 71/25/50 23/26/51 15/235/52
s 3
f 23/201/53 47/31/54 48/32/55 15/29/56
s 5
f 24/236/57 62/59/58 63/62/59 16/63/60
s 14
f 53/202/61 129/203/62 122/69/63 27/70/64
s 15
f 68/65/65 123/66/66 124/67/67 30/68/68
s 16
f 124/67/69 125/205/70 50/206/71 30/68/72
s 17
f 126/74/73 127/75/74 65/76/75 32/77/76
s 1
f 56/34/46 106/180/77 107/179/78 22/27/47
s 4
f 71/25/50 108/23/79 109/22/80 23/26/51
s 3
f 109/199/81 110/198/82 47/31/54 23/201/53
s 5
f 111/57/83 112/56/84 62/59/58 24/236/57
s 18
f 54/124/85 55/125/86 14/126/87 26/127/88
s 19
f 18/140/89 52/141/90 53/142/91 27/143/92
s 20
f 69/131/93 70/130/94 15/134/95 29/135/96
s 21
f 19/154/97 67/149/98 68/148/99 30/155/100
s 22
f 15/134/101 48/138/102 49/139/103 29/135/104
s 23
f 50/160/105 51/161/106 19/154/107 30/155/108
s 24
f 16/136/109 63/133/110 64/132/111 31/137/112
s 25
f 65/153/113 66/152/114 20/158/115 32/159/116
s 1
f 60/120/117 41/113/118 2/231/119 34/121/120
s 4
f 75/7/121 76/13/122 8/14/123 35/8/124
s 3
f 42/232/125 43/117/126 35/118/127 8/233/128
s 5
f 7/45/129 77/46/130 78/40/131 36/39/132
s 4
f 73/9/23 74/1/33 37/4/36 11/10/24
s 1
f 58/170/3 59/164/29 38/167/32 10/171/4
s 5
f 40/38/44 79/37/43 80/43/26 12/44/25
s 3
f 44/185/39 45/189/9 11/190/12 37/186/40
f 36/122/133 43/117/126 42/232/125 7/234/134
f 40/187/135 44/185/39 102/184/38 103/188/136
f 12/191/137 45/189/9 44/185/39 40/187/135
f 130/194/138 131/192/10 45/189/9 12/191/137
f 47/31/54 110/198/82 111/200/139 24/60/140
f 48/32/55 47/31/54 24/60/140 16/237/141
s 22
f 49/139/103 48/138/102 16/136/142 31/137/143
s 16
f 50/206/71 125/205/70 126/208/144 32/209/145
s 23
f 20/158/146 51/161/106 50/160/105 32/159/147
s 19
f 53/142/91 52/141/90 17/146/148 28/147/149
s 14
f 128/80/150 129/203/62 53/202/61 28/81/151
s 18
f 13/128/152 55/125/86 54/124/85 25/129/153
s 1
f 21/182/154 56/34/46 55/33/45 13/64/155
f 105/181/156 106/180/77 56/34/46 21/182/154
f 9/172/157 58/170/3 135/174/2 136/175/158
f 39/169/159 59/164/29 58/170/3 9/172/157
f 97/168/160 98/165/30 59/164/29 39/169/159
f 1/119/161 41/113/118 60/120/117 33/123/162
s 5
f 62/59/58 112/56/84 105/58/163 21/61/164
f 63/62/59 62/59/58 21/61/164 13/238/165
s 24
f 64/132/111 63/133/110 13/128/166 25/129/167
s 17
f 65/76/75 127/75/74 128/80/168 28/81/169
s 25
f 17/146/170 66/152/114 65/153/113 28/147/171
s 21
f 68/148/99 67/149/98 18/140/172 27/143/173
s 15
f 122/69/174 123/66/66 68/65/65 27/70/175
s 20
f 14/126/176 70/130/94 69/131/93 26/127/177
s 4
f 22/239/178 71/25/50 70/28/49 14/30/179
f 107/24/180 108/23/79 71/25/50 22/239/178
f 10/12/181 73/9/23 133/16/22 134/18/182
f 38/6/183 74/1/33 73/9/23 10/12/181
f 99/5/184 100/2/34 74/1/33 38/6/183
f 2/17/185 76/13/122 75/7/121 34/11/186
s 5
f 78/40/131 77/46/130 1/51/187 33/47/188
f 79/37/43 104/36/42 97/41/189 39/42/190
f 80/43/26 79/37/43 39/42/190 9/48/191
f 136/52/192 137/49/27 80/43/26 9/48/191
s off
f 67/149/193 19/154/194 82/156/195 81/150/196
f 19/154/197 51/161/198 83/162/199 82/156/200
f 51/161/201 20/158/202 84/163/203 83/162/204
f 20/158/205 66/152/206 85/157/207 84/163/208
f 66/152/209 17/146/210 86/151/211 85/157/212
f 17/146/213 52/141/214 87/145/215 86/151/216
f 52/141/217 18/140/218 88/144/219 87/145/220
f 18/140/221 67/149/222 81/150/223 88/144/224
s 30
f 113/83/225 114/84/226 90/85/227 89/86/228
s 31
f 114/211/229 115/212/230 91/213/231 90/214/232
f 115/212/230 116/217/233 92/218/234 91/213/231
s 32
f 116/92/235 117/93/236 93/94/237 92/95/238
f 117/93/236 118/98/239 94/99/240 93/94/237
s 33
f 118/220/241 119/221/242 95/222/243 94/223/244
f 119/221/242 120/226/245 96/227/246 95/222/243
s 30
f 120/89/247 113/83/225 89/86/228 96/90/248
s 1
f 33/123/162 60/120/117 98/165/30 97/168/160
f 99/166/31 98/165/30 60/120/117 34/121/120
s 4
f 34/11/186 75/7/121 100/2/34 99/5/184
f 101/3/35 100/2/34 75/7/121 35/8/124
s 3
f 43/117/126 102/184/38 101/183/37 35/118/127
f 103/188/136 102/184/38 43/117/126 36/122/133
s 5
f 36/39/132 78/40/131 104/36/42 103/35/41
f 97/41/189 104/36/42 78/40/131 33/47/188
s 1
f 3/178/249 57/176/250 106/180/77 105/181/156
f 107/179/78 106/180/77 57/176/250 4/177/251
s 4
f 4/21/252 72/19/253 108/23/79 107/24/180
f 109/22/80 108/23/79 72/19/253 6/20/254
s 3
f 6/196/255 46/195/256 110/198/82 109/199/81
f 111/200/139 110/198/82 46/195/256 5/197/257
s 5
f 5/54/258 61/53/259 112/56/84 111/57/83
f 105/58/163 112/56/84 61/53/259 3/55/260
s 30
f 81/87/261 82/88/262 114/84/226 113/83/225
s 31
f 82/215/263 83/216/264 115/212/230 114/211/229
f 83/216/264 84/219/265 116/217/233 115/212/230
s 32
f 84/96/266 85/97/267 117/93/236 116/92/235
f 85/97/267 86/100/268 118/98/239 117/93/236
s 33
f 86/224/269 87/225/270 119/221/242 118/220/241
f 87/225/270 88/228/271 120/226/245 119/221/242
s 30
f 88/91/272 81/87/261 113/83/225 120/89/247
s 2
f 93/105/273 121/104/8 91/103/7 92/106/274
f 95/107/275 121/104/8 93/105/273 94/109/276
f 89/101/5 121/104/8 95/107/275 96/108/277
s 15
f 26/73/278 69/71/279 123/66/66 122/69/174
f 124/67/67 123/66/66 69/71/279 29/72/280
s 16
f 29/72/281 49/207/282 125/205/70 124/67/69
f 126/208/144 125/205/70 49/207/282 31/210/283
s 17
f 31/78/284 64/79/285 127/75/74 126/74/73
f 128/80/168 127/75/74 64/79/285 25/82/286
s 14
f 25/82/287 54/204/288 129/203/62 128/80/150
f 122/69/63 129/203/62 54/204/288 26/73/289
s 3
f 131/192/10 130/194/138 5/197/257 46/195/256
f 132/193/11 131/192/10 46/195/256 6/196/255
s 4
f 133/16/22 132/15/21 6/20/254 72/19/253
f 134/18/182 133/16/22 72/19/253 4/21/252
s 1
f 135/174/2 134/173/1 4/177/251 57/176/250
f 136/175/158 135/174/2 57/176/250 3/178/249
s 5
f 137/49/27 136/52/192 3/55/260 61/53/259
f 5/197/290 130/50/28 137/49/27 61/53/291
